<?xml version="1.0" standalone="no"?>
<!DOCTYPE svg PUBLIC "-//W3C//DTD SVG 20010904//EN"
 "http://www.w3.org/TR/2001/REC-SVG-20010904/DTD/svg10.dtd">
<svg version="1.0" xmlns="http://www.w3.org/2000/svg"
 width="196.000000pt" height="196.000000pt" viewBox="0 0 196.000000 196.000000"
 preserveAspectRatio="xMidYMid meet">
<metadata>
Created by potrace 1.11, written by Peter Selinger 2001-2013
</metadata>
<g transform="translate(0.000000,196.000000) scale(0.100000,-0.100000)"
fill="#000000" stroke="none">
<path d="M865 1804 c-37 -19 -113 -53 -169 -75 -55 -22 -122 -54 -148 -71 -84
-53 -203 -199 -249 -305 -18 -41 -22 -45 -29 -28 -7 17 -10 15 -24 -20 -9 -22
-21 -49 -26 -60 -18 -38 2 37 27 99 30 77 30 90 -2 84 -24 -5 -24 -5 -10 30
22 52 18 59 -14 28 -55 -53 -117 -243 -128 -388 -3 -48 -10 -88 -16 -88 -14 0
0 -125 23 -208 43 -154 107 -248 289 -424 165 -160 220 -194 316 -192 73 1
155 34 191 77 22 27 26 38 22 82 -9 101 -76 161 -191 171 -26 2 -61 11 -77 19
-36 19 -44 19 -37 1 3 -8 -13 -3 -42 13 -71 40 -84 51 -126 111 -22 31 -30 47
-18 36 36 -30 45 -14 17 29 l-25 40 33 -37 c32 -35 93 -78 113 -78 5 0 -11 21
-35 46 -35 36 -40 45 -22 39 31 -9 28 6 -9 41 -32 30 -79 119 -97 187 -6 21
-6 35 -1 32 5 -4 9 -15 9 -25 0 -10 5 -22 11 -26 14 -9 2 115 -18 174 -8 25
-11 56 -7 77 8 42 120 240 167 295 29 34 64 110 50 110 -2 0 -14 -5 -26 -11
-39 -18 64 70 123 106 62 38 100 47 107 28 3 -7 -2 -13 -10 -13 -8 0 -25 -9
-38 -21 l-24 -20 32 4 c18 2 34 -1 36 -7 3 -7 26 -5 71 7 38 10 70 16 73 14 2
-3 -16 -9 -39 -15 -24 -6 -88 -33 -143 -59 -73 -35 -94 -49 -77 -51 12 -2 61
15 110 37 105 48 192 65 287 57 168 -15 299 -92 385 -226 30 -47 81 -175 95
-238 6 -31 5 -32 -17 -27 l-23 6 3 -113 c4 -131 -12 -217 -57 -306 -57 -111
-168 -244 -238 -283 -45 -25 -54 -39 -26 -39 13 0 14 -3 5 -12 -22 -22 -12
-29 21 -12 17 9 52 31 77 49 60 43 75 51 66 37 -4 -7 -38 -32 -76 -57 -39 -24
-70 -49 -70 -55 0 -7 7 -7 23 1 12 6 4 -5 -18 -25 l-40 -37 30 6 c34 7 59 19
128 59 26 15 47 25 47 23 0 -3 -58 -41 -130 -83 -71 -43 -130 -81 -130 -85 0
-5 51 10 113 32 61 23 127 45 145 49 19 5 41 15 50 23 9 8 27 19 39 26 21 11
21 10 7 -18 -13 -27 -82 -79 -144 -111 -50 -25 -180 -103 -180 -108 0 -11 109
8 154 28 95 40 293 179 333 232 21 27 53 69 70 92 75 98 155 361 155 506 -1
161 -45 346 -117 489 -45 91 -147 216 -204 252 -62 39 -83 38 -45 -2 l29 -32
-50 28 c-27 15 -60 34 -73 42 -48 29 -45 5 3 -28 52 -35 169 -150 187 -183 6
-11 -26 12 -71 50 -143 122 -256 178 -433 215 -137 28 -174 26 -253 -17z m725
-684 c0 -11 -2 -20 -4 -20 -2 0 -6 9 -9 20 -3 11 -1 20 4 20 5 0 9 -9 9 -20z
m-21 -245 c-6 -33 -26 -89 -46 -125 -42 -77 -139 -210 -154 -210 -6 0 1 15 16
33 65 79 118 154 132 187 23 56 43 174 44 273 l2 92 8 -95 c5 -59 4 -118 -2
-155z m-1185 -111 c3 -8 2 -12 -4 -9 -6 3 -10 10 -10 16 0 14 7 11 14 -7z
m1066 -268 c0 -2 -8 -10 -17 -17 -16 -13 -17 -12 -4 4 13 16 21 21 21 13z"/>
<path d="M660 1350 c-19 -19 -20 -33 -20 -284 0 -152 4 -276 10 -291 8 -21 16
-26 37 -23 37 4 41 22 43 228 l2 175 30 -65 c104 -218 134 -275 163 -306 18
-19 39 -34 47 -34 17 0 63 90 102 198 38 107 67 172 77 172 5 0 9 -53 9 -118
0 -180 24 -240 112 -277 46 -19 98 -20 98 -2 0 7 -11 28 -24 46 -38 51 -46
113 -46 349 0 156 -3 221 -12 230 -16 16 -100 15 -121 0 -9 -7 -41 -74 -71
-148 -69 -172 -95 -230 -104 -230 -12 0 -66 98 -132 240 -35 74 -70 140 -79
147 -26 20 -98 16 -121 -7z"/>
</g>
</svg>
